{"accessors" : [{"bufferView" : 0, "byteOffset" : 0, "componentType" : 5123, "count" : 96, "type" : "SCALAR", "max" : [24], "min" : [0]}, {"bufferView" : 1, "byteOffset" : 0, "componentType" : 5126, "count" : 25, "type" : "VEC3", "max" : [47.79999923706055, 56.150001525878906, 0], "min" : [-47.80000305175781, -56.150001525878906, 0], "name" : "POSITION"}, {"bufferView" : 1, "byteOffset" : 12, "componentType" : 5126, "count" : 25, "type" : "VEC2", "max" : [1, 1], "min" : [0, 0], "name" : "TEXCOORD_0"}, {"bufferView" : 0, "byteOffset" : 192, "componentType" : 5123, "count" : 48, "type" : "SCALAR", "max" : [17], "min" : [0]}, {"bufferView" : 2, "byteOffset" : 0, "componentType" : 5126, "count" : 18, "type" : "VEC3", "max" : [62.65819549560547, 46.968441009521484, 0], "min" : [-32.744720458984375, -58.52457046508789, -27.004837036132812], "name" : "POSITION"}, {"bufferView" : 2, "byteOffset" : 12, "componentType" : 5126, "count" : 18, "type" : "VEC2", "max" : [6.324437141418457, 5.259042739868164], "min" : [-3.215855121612549, -5.29025936126709], "name" : "TEXCOORD_0"}], "asset" : {"generator" : "Aspose.3D 24.6.0", "version" : "2.0"}, "buffers" : [{"uri" : "data:application/octet-stream;base64,", "byteLength" : 1160}], "bufferViews" : [{"buffer" : 0, "byteOffset" : 0, "byteLength" : 288, "target" : 34963}, {"buffer" : 0, "byteOffset" : 292, "byteLength" : 500, "byteStride" : 20, "target" : 34962}, {"buffer" : 0, "byteOffset" : 796, "byteLength" : 360, "byteStride" : 20, "target" : 34962}], "images" : [{"uri" : "1200-630.PNG"}, {"uri" : "1200-630.PNG"}], "materials" : [{"name" : "Material #28", "pbrMetallicRoughness" : {"baseColorFactor" : [1, 1, 1, 1], "baseColorTexture" : {"index" : 0, "texCoord" : 0}, "metallicFactor" : 1, "roughnessFactor" : 1}, "emissiveFactor" : [0, 0, 0], "alphaMode" : "OPAQUE", "doubleSided" : false}, {"name" : "01 - Default", "pbrMetallicRoughness" : {"baseColorFactor" : [1, 1, 1, 1], "baseColorTexture" : {"index" : 1, "texCoord" : 0}, "metallicFactor" : 1, "roughnessFactor" : 1}, "emissiveFactor" : [0, 0, 0], "alphaMode" : "OPAQUE", "doubleSided" : false}], "meshes" : [{"primitives" : [{"attributes" : {"POSITION" : 1, "TEXCOORD_0" : 2}, "indices" : 0, "material" : 0, "mode" : 4}], "name" : "Plane001"}, {"primitives" : [{"attributes" : {"POSITION" : 4, "TEXCOORD_0" : 5}, "indices" : 3, "material" : 1, "mode" : 4}], "name" : "Line001"}], "nodes" : [{"matrix" : [-1, 0, 0, 0, 0, 0, 1, 0, 0, 1, 0, 0, 22.82036018371582, 0, 15.703171730041504, 1], "mesh" : 0, "name" : "Plane001"}, {"matrix" : [-1.0672534704208374, 0, 0, 0, 0, 0, 0.8791652321815491, 0, 0, 0.40214672684669495, 0, 0, 37.71895980834961, 0, 17.398653030395508, 1], "mesh" : 1, "name" : "Line001"}], "samplers" : [{"magFilter" : 9729, "minFilter" : 9729, "wrapS" : 10497, "wrapT" : 10497}, {"magFilter" : 9729, "minFilter" : 9729, "wrapS" : 10497, "wrapT" : 10497}], "scene" : 0, "scenes" : [{"nodes" : [0, 1]}], "textures" : [{"sampler" : 0, "source" : 0, "name" : ""}, {"sampler" : 1, "source" : 1, "name" : ""}]}